P3 50 50 255
0 0 0
0 0 0
0 0 0
0 0 0
0 0 0
0 0 0
0 0 0
0 0 0
0 0 0
0 0 0
0 0 0
0 0 0
0 0 0
0 0 0
0 0 0
0 0 0
0 0 0
0 0 0
0 0 0
0 0 0
0 0 0
0 0 0
0 0 0
0 0 0
0 0 0
0 0 0
0 0 0
0 0 0
0 0 0
0 0 0
0 0 0
0 0 0
0 0 0
0 0 0
0 0 0
0 0 0
0 0 0
0 0 0
0 0 0
0 0 0
0 0 0
0 0 0
0 0 0
0 0 0
0 0 0
0 0 0
0 0 0
0 0 0
0 0 0
0 0 0
0 0 0
0 0 0
0 0 0
0 0 0
0 0 0
0 0 0
0 0 0
0 0 0
0 0 0
0 0 0
0 0 0
0 0 0
0 0 0
0 0 0
0 0 0
0 0 0
0 0 0
0 0 0
0 0 0
0 0 0
0 0 0
0 0 0
0 0 0
0 0 0
0 0 0
0 0 0
0 0 0
0 0 0
0 0 0
0 0 0
0 0 0
0 0 0
0 0 0
0 0 0
0 0 0
0 0 0
0 0 0
0 0 0
0 0 0
0 0 0
0 0 0
0 0 0
0 0 0
0 0 0
0 0 0
0 0 0
0 0 0
0 0 0
0 0 0
0 0 0
0 0 0
0 0 0
0 0 0
0 0 0
0 0 0
0 0 0
0 0 0
0 0 0
0 0 0
0 0 0
0 0 0
0 0 0
0 0 0
0 0 0
0 0 0
0 0 0
0 0 0
0 0 0
0 0 0
0 0 0
0 0 0
0 0 0
0 0 0
0 0 0
0 0 0
0 0 0
0 0 0
0 0 0
0 0 0
0 0 0
0 0 0
0 0 0
0 0 0
0 0 0
0 0 0
0 0 0
0 0 0
0 0 0
0 0 0
0 0 0
0 0 0
0 0 0
0 0 0
0 0 0
0 0 0
0 0 0
0 0 0
0 0 0
0 0 0
0 0 0
0 0 0
0 0 0
0 0 0
0 0 0
0 0 0
0 0 0
0 0 0
0 0 0
0 0 0
0 0 0
0 0 0
0 0 0
0 0 0
0 0 0
0 0 0
0 0 0
0 0 0
0 0 0
0 0 0
0 0 0
0 0 0
0 0 0
0 0 0
0 0 0
0 0 0
0 0 0
0 0 0
0 0 0
0 0 0
0 0 0
0 0 0
0 0 0
0 0 0
0 0 0
0 0 0
0 0 0
0 0 0
0 0 0
0 0 0
0 0 0
0 0 0
0 0 0
0 0 0
0 0 0
0 0 0
0 0 0
0 0 0
0 0 0
0 0 0
0 0 0
0 0 0
0 0 0
0 0 0
0 0 0
0 0 0
0 0 0
0 0 0
0 0 0
0 0 0
0 0 0
0 0 0
0 0 0
0 0 0
0 0 0
0 0 0
0 0 0
0 0 0
0 0 0
0 0 0
0 0 0
0 0 0
0 0 0
0 0 0
0 0 0
0 0 0
0 0 0
0 0 0
0 0 0
0 0 0
0 0 0
0 0 0
0 0 0
0 0 0
0 0 0
0 0 0
0 0 0
0 0 0
0 0 0
0 0 0
0 0 0
0 0 0
0 0 0
0 0 0
0 0 0
0 0 0
0 0 0
0 0 0
0 0 0
0 0 0
0 0 0
0 0 0
0 0 0
0 0 0
0 0 0
0 0 0
0 0 0
0 0 0
0 0 0
0 0 0
0 0 0
0 0 0
0 0 0
0 0 0
0 0 0
0 0 0
0 0 0
0 0 0
0 0 0
0 0 0
0 0 0
0 0 0
0 0 0
0 0 0
0 0 0
0 0 0
0 0 0
0 0 0
0 0 0
0 0 0
0 0 0
0 0 0
0 0 0
0 0 0
0 0 0
0 0 0
0 0 0
0 0 0
0 0 0
0 0 0
0 0 0
0 0 0
0 0 0
0 0 0
0 0 0
0 0 0
0 0 0
0 0 0
0 0 0
0 0 0
0 0 0
0 0 0
0 0 0
0 0 0
0 0 0
0 0 0
0 0 0
0 0 0
0 0 0
0 0 0
0 0 0
0 0 0
0 0 0
0 0 0
0 0 0
0 0 0
0 0 0
0 0 0
0 0 0
0 0 0
0 0 0
0 0 0
0 0 0
0 0 0
0 0 0
0 0 0
0 0 0
0 0 0
0 0 0
0 0 0
0 0 0
0 0 0
0 0 0
0 0 0
0 0 0
0 0 0
0 0 0
0 0 0
0 0 0
0 0 0
0 0 0
0 0 0
0 0 0
0 0 0
0 0 0
0 0 0
0 0 0
0 0 0
0 0 0
0 0 0
0 0 0
0 0 0
0 0 0
0 0 0
0 0 0
0 0 0
0 0 0
0 0 0
0 0 0
0 0 0
0 0 0
0 0 0
0 0 0
0 0 0
0 0 0
0 0 0
0 0 0
0 0 0
0 0 0
0 0 0
0 0 0
0 0 0
0 0 0
0 0 0
0 0 0
0 0 0
0 0 0
0 0 0
0 0 0
0 0 0
0 0 0
0 0 0
0 0 0
0 0 0
0 0 0
0 0 0
0 0 0
0 0 0
0 0 0
0 0 0
0 0 0
0 0 0
0 0 0
0 0 0
0 0 0
0 0 0
0 0 0
0 0 0
0 0 0
0 0 0
0 0 0
0 0 0
0 0 0
0 0 0
0 0 0
0 0 0
0 0 0
0 0 0
0 0 0
0 0 0
0 0 0
0 0 0
0 0 0
0 0 0
0 0 0
0 0 0
0 0 0
0 0 0
0 0 0
0 0 0
0 0 0
0 0 0
0 0 0
0 0 0
0 0 0
0 0 0
0 0 0
0 0 0
0 0 0
0 0 0
0 0 0
0 0 0
0 0 0
0 0 0
0 0 0
0 0 0
0 0 0
0 0 0
0 0 0
0 0 0
0 0 0
0 0 0
0 0 0
0 0 0
0 0 0
0 0 0
0 0 0
0 0 0
0 0 0
0 0 0
0 0 0
0 0 0
0 0 0
0 0 0
0 0 0
0 0 0
0 0 0
0 0 0
0 0 0
0 0 0
0 0 0
0 0 0
0 0 0
0 0 0
0 0 0
0 0 0
0 0 0
0 0 0
0 0 0
0 0 0
0 0 0
0 0 0
0 0 0
0 0 0
0 0 0
0 0 0
0 0 0
0 0 0
0 0 0
0 0 0
0 0 0
0 0 0
0 0 0
0 0 0
0 0 0
0 0 0
0 0 0
0 0 0
0 0 0
0 0 0
0 0 0
0 0 0
0 0 0
0 0 0
0 0 0
0 0 0
0 0 0
0 0 0
0 0 0
0 0 0
0 0 0
0 0 0
0 0 0
0 0 0
0 0 0
0 0 0
0 0 0
0 0 0
0 0 0
0 0 0
0 0 0
0 0 0
0 0 0
0 0 0
0 0 0
0 0 0
0 0 0
0 0 0
0 0 0
0 0 0
0 0 0
0 0 0
0 0 0
0 0 0
228 228 228
226 226 226
220 220 220
212 212 212
203 203 203
192 192 192
179 179 179
161 161 161
0 0 0
0 0 0
0 0 0
0 0 0
0 0 0
0 0 0
0 0 0
0 0 0
0 0 0
0 0 0
0 0 0
0 0 0
0 0 0
0 0 0
0 0 0
0 0 0
0 0 0
0 0 0
0 0 0
0 0 0
0 0 0
0 0 0
0 0 0
0 0 0
0 0 0
0 0 0
0 0 0
0 0 0
0 0 0
0 0 0
0 0 0
0 0 0
0 0 0
0 0 0
0 0 0
0 0 0
0 0 0
0 0 0
0 0 0
0 0 0
245 245 245
242 242 242
237 237 237
231 231 231
224 224 224
215 215 215
206 206 206
197 197 197
186 186 186
173 173 173
159 159 159
141 141 141
0 0 0
0 0 0
0 0 0
0 0 0
0 0 0
0 0 0
0 0 0
0 0 0
0 0 0
0 0 0
0 0 0
0 0 0
0 0 0
0 0 0
0 0 0
0 0 0
0 0 0
0 0 0
0 0 0
0 0 0
0 0 0
0 0 0
0 0 0
0 0 0
0 0 0
0 0 0
0 0 0
0 0 0
0 0 0
0 0 0
0 0 0
0 0 0
0 0 0
0 0 0
0 0 0
0 0 0
250 250 250
251 251 251
248 248 248
243 243 243
237 237 237
230 230 230
223 223 223
214 214 214
206 206 206
196 196 196
186 186 186
175 175 175
162 162 162
148 148 148
131 131 131
107 107 107
0 0 0
0 0 0
0 0 0
0 0 0
0 0 0
0 0 0
0 0 0
0 0 0
0 0 0
0 0 0
0 0 0
0 0 0
0 0 0
0 0 0
0 0 0
0 0 0
0 0 0
0 0 0
0 0 0
0 0 0
0 0 0
0 0 0
0 0 0
0 0 0
0 0 0
0 0 0
0 0 0
0 0 0
0 0 0
0 0 0
0 0 0
0 0 0
0 0 0
253 253 253
254 254 254
251 251 251
246 246 246
240 240 240
234 234 234
227 227 227
220 220 220
212 212 212
203 203 203
194 194 194
184 184 184
173 173 173
162 162 162
149 149 149
134 134 134
116 116 116
93 93 93
0 0 0
0 0 0
0 0 0
0 0 0
0 0 0
0 0 0
0 0 0
0 0 0
0 0 0
0 0 0
0 0 0
0 0 0
0 0 0
0 0 0
0 0 0
0 0 0
0 0 0
0 0 0
0 0 0
0 0 0
0 0 0
0 0 0
0 0 0
0 0 0
0 0 0
0 0 0
0 0 0
0 0 0
0 0 0
0 0 0
0 0 0
253 253 253
255 255 255
252 252 252
248 248 248
242 242 242
236 236 236
230 230 230
223 223 223
215 215 215
207 207 207
199 199 199
190 190 190
180 180 180
170 170 170
159 159 159
147 147 147
133 133 133
118 118 118
99 99 99
74 74 74
0 0 0
0 0 0
0 0 0
0 0 0
0 0 0
0 0 0
0 0 0
0 0 0
0 0 0
0 0 0
0 0 0
0 0 0
0 0 0
0 0 0
0 0 0
0 0 0
0 0 0
0 0 0
0 0 0
0 0 0
0 0 0
0 0 0
0 0 0
0 0 0
0 0 0
0 0 0
0 0 0
0 0 0
0 0 0
249 249 249
253 253 253
252 252 252
248 248 248
243 243 243
238 238 238
232 232 232
225 225 225
218 218 218
211 211 211
203 203 203
194 194 194
186 186 186
176 176 176
166 166 166
155 155 155
144 144 144
131 131 131
116 116 116
100 100 100
79 79 79
49 49 49
0 0 0
0 0 0
0 0 0
0 0 0
0 0 0
0 0 0
0 0 0
0 0 0
0 0 0
0 0 0
0 0 0
0 0 0
0 0 0
0 0 0
0 0 0
0 0 0
0 0 0
0 0 0
0 0 0
0 0 0
0 0 0
0 0 0
0 0 0
0 0 0
0 0 0
0 0 0
0 0 0
0 0 0
250 250 250
250 250 250
247 247 247
243 243 243
238 238 238
232 232 232
226 226 226
219 219 219
212 212 212
205 205 205
197 197 197
189 189 189
180 180 180
171 171 171
161 161 161
151 151 151
139 139 139
127 127 127
113 113 113
97 97 97
79 79 79
55 55 55
7 7 7
0 0 0
0 0 0
0 0 0
0 0 0
0 0 0
0 0 0
0 0 0
0 0 0
0 0 0
0 0 0
0 0 0
0 0 0
0 0 0
0 0 0
0 0 0
0 0 0
0 0 0
0 0 0
0 0 0
0 0 0
0 0 0
0 0 0
0 0 0
0 0 0
0 0 0
0 0 0
242 242 242
246 246 246
245 245 245
241 241 241
237 237 237
232 232 232
226 226 226
220 220 220
213 213 213
206 206 206
199 199 199
191 191 191
183 183 183
174 174 174
165 165 165
156 156 156
145 145 145
134 134 134
122 122 122
109 109 109
94 94 94
76 76 76
55 55 55
25 25 25
0 0 0
0 0 0
0 0 0
0 0 0
0 0 0
0 0 0
0 0 0
0 0 0
0 0 0
0 0 0
0 0 0
0 0 0
0 0 0
0 0 0
0 0 0
0 0 0
0 0 0
0 0 0
0 0 0
0 0 0
0 0 0
0 0 0
0 0 0
0 0 0
0 0 0
0 0 0
240 240 240
241 241 241
238 238 238
235 235 235
230 230 230
225 225 225
219 219 219
213 213 213
207 207 207
200 200 200
193 193 193
185 185 185
177 177 177
168 168 168
159 159 159
150 150 150
139 139 139
128 128 128
116 116 116
103 103 103
89 89 89
72 72 72
52 52 52
27 27 27
0 0 0
0 0 0
0 0 0
0 0 0
0 0 0
0 0 0
0 0 0
0 0 0
0 0 0
0 0 0
0 0 0
0 0 0
0 0 0
0 0 0
0 0 0
0 0 0
0 0 0
0 0 0
0 0 0
0 0 0
0 0 0
0 0 0
0 0 0
0 0 0
0 0 0
225 225 225
234 234 234
234 234 234
232 232 232
228 228 228
223 223 223
218 218 218
213 213 213
206 206 206
200 200 200
193 193 193
186 186 186
178 178 178
170 170 170
161 161 161
152 152 152
143 143 143
133 133 133
122 122 122
110 110 110
97 97 97
83 83 83
67 67 67
48 48 48
24 24 24
0 0 0
0 0 0
0 0 0
0 0 0
0 0 0
0 0 0
0 0 0
0 0 0
0 0 0
0 0 0
0 0 0
0 0 0
0 0 0
0 0 0
0 0 0
0 0 0
0 0 0
0 0 0
0 0 0
0 0 0
0 0 0
98 98 98
85 85 85
181 181 181
231 231 231
231 231 231
183 183 183
198 198 198
232 232 232
212 212 212
237 237 237
226 226 226
178 178 178
238 238 238
182 182 182
186 186 186
178 178 178
171 171 171
163 163 163
154 154 154
145 145 145
136 136 136
126 126 126
115 115 115
103 103 103
90 90 90
76 76 76
60 60 60
42 42 42
19 19 19
0 0 0
0 0 0
0 0 0
0 0 0
0 0 0
0 0 0
0 0 0
0 0 0
0 0 0
0 0 0
0 0 0
0 0 0
0 0 0
0 0 0
0 0 0
0 0 0
0 0 0
0 0 0
0 0 0
0 0 0
179 179 179
112 112 112
0 0 0
195 195 195
226 226 226
222 222 222
195 195 195
195 195 195
220 220 220
220 220 220
193 193 193
192 192 192
161 161 161
193 193 193
120 120 120
0 0 0
171 171 171
163 163 163
155 155 155
147 147 147
138 138 138
128 128 128
118 118 118
107 107 107
96 96 96
83 83 83
69 69 69
53 53 53
35 35 35
12 12 12
0 0 0
0 0 0
0 0 0
0 0 0
0 0 0
0 0 0
0 0 0
0 0 0
0 0 0
0 0 0
0 0 0
0 0 0
0 0 0
0 0 0
0 0 0
0 0 0
0 0 0
0 0 0
0 0 0
216 216 216
0 0 0
2 2 2
81 81 81
81 81 81
199 199 199
212 212 212
182 182 182
170 170 170
209 209 209
178 178 178
176 176 176
159 159 159
166 166 166
184 184 184
60 60 60
170 170 170
163 163 163
155 155 155
147 147 147
139 139 139
130 130 130
120 120 120
110 110 110
99 99 99
87 87 87
75 75 75
61 61 61
45 45 45
26 26 26
4 4 4
0 0 0
0 0 0
0 0 0
0 0 0
0 0 0
0 0 0
0 0 0
0 0 0
0 0 0
0 0 0
0 0 0
0 0 0
0 0 0
0 0 0
0 0 0
0 0 0
0 0 0
0 0 0
0 0 0
0 0 0
0 0 0
0 0 0
0 0 0
81 81 81
210 210 210
135 135 135
81 81 81
117 117 117
170 170 170
132 132 132
133 133 133
83 83 83
145 145 145
145 145 145
45 45 45
161 161 161
154 154 154
147 147 147
139 139 139
130 130 130
121 121 121
112 112 112
101 101 101
90 90 90
79 79 79
66 66 66
52 52 52
36 36 36
17 17 17
0 0 0
0 0 0
0 0 0
0 0 0
0 0 0
0 0 0
0 0 0
0 0 0
0 0 0
0 0 0
0 0 0
0 0 0
0 0 0
0 0 0
0 0 0
0 0 0
0 0 0
0 0 0
0 0 0
0 0 0
0 0 0
0 0 0
0 0 0
0 0 0
0 0 0
131 131 131
85 85 85
64 64 64
106 106 106
161 161 161
54 54 54
54 54 54
1 1 1
107 107 107
77 77 77
60 60 60
152 152 152
145 145 145
138 138 138
130 130 130
121 121 121
112 112 112
102 102 102
92 92 92
81 81 81
69 69 69
56 56 56
42 42 42
26 26 26
7 7 7
0 0 0
0 0 0
0 0 0
0 0 0
0 0 0
0 0 0
0 0 0
0 0 0
0 0 0
0 0 0
0 0 0
0 0 0
0 0 0
0 0 0
0 0 0
0 0 0
0 0 0
0 0 0
0 0 0
0 0 0
0 0 0
0 0 0
0 0 0
0 0 0
0 0 0
0 0 0
122 122 122
0 0 0
0 0 0
92 92 92
79 79 79
0 0 0
0 0 0
0 0 0
89 89 89
83 83 83
143 143 143
136 136 136
128 128 128
120 120 120
111 111 111
102 102 102
93 93 93
82 82 82
71 71 71
59 59 59
46 46 46
31 31 31
14 14 14
0 0 0
0 0 0
0 0 0
0 0 0
0 0 0
0 0 0
0 0 0
0 0 0
0 0 0
0 0 0
0 0 0
0 0 0
0 0 0
0 0 0
0 0 0
0 0 0
0 0 0
0 0 0
0 0 0
0 0 0
0 0 0
0 0 0
0 0 0
0 0 0
0 0 0
0 0 0
0 0 0
161 161 161
0 0 0
168 168 168
167 167 167
164 164 164
161 161 161
156 156 156
151 151 151
0 0 0
82 82 82
0 0 0
0 0 0
0 0 0
0 0 0
0 0 0
0 0 0
82 82 82
72 72 72
60 60 60
48 48 48
34 34 34
19 19 19
2 2 2
0 0 0
0 0 0
0 0 0
0 0 0
0 0 0
0 0 0
0 0 0
0 0 0
0 0 0
0 0 0
0 0 0
0 0 0
0 0 0
0 0 0
0 0 0
0 0 0
0 0 0
0 0 0
0 0 0
0 0 0
0 0 0
0 0 0
0 0 0
0 0 0
0 0 0
0 0 0
0 0 0
0 0 0
173 173 173
155 155 155
155 155 155
153 153 153
149 149 149
145 145 145
140 140 140
0 0 0
0 0 0
0 0 0
0 0 0
0 0 0
0 0 0
0 0 0
0 0 0
0 0 0
60 60 60
49 49 49
36 36 36
22 22 22
6 6 6
0 0 0
0 0 0
0 0 0
0 0 0
0 0 0
0 0 0
0 0 0
0 0 0
0 0 0
0 0 0
0 0 0
0 0 0
0 0 0
0 0 0
0 0 0
0 0 0
0 0 0
0 0 0
0 0 0
0 0 0
0 0 0
0 0 0
0 0 0
0 0 0
0 0 0
0 0 0
0 0 0
0 0 0
0 0 0
21 21 21
139 139 139
141 141 141
140 140 140
137 137 137
0 0 0
0 0 0
0 0 0
0 0 0
0 0 0
0 0 0
0 0 0
0 0 0
0 0 0
0 0 0
0 0 0
0 0 0
36 36 36
23 23 23
9 9 9
0 0 0
0 0 0
0 0 0
0 0 0
0 0 0
0 0 0
0 0 0
0 0 0
0 0 0
0 0 0
0 0 0
0 0 0
0 0 0
0 0 0
0 0 0
0 0 0
0 0 0
0 0 0
0 0 0
0 0 0
0 0 0
0 0 0
0 0 0
0 0 0
0 0 0
0 0 0
0 0 0
0 0 0
0 0 0
242 242 242
61 61 61
121 121 121
125 125 125
125 125 125
123 123 123
0 0 0
0 0 0
0 0 0
227 227 227
0 0 0
0 0 0
0 0 0
0 0 0
0 0 0
0 0 0
0 0 0
0 0 0
0 0 0
9 9 9
0 0 0
0 0 0
0 0 0
0 0 0
0 0 0
0 0 0
0 0 0
0 0 0
0 0 0
0 0 0
0 0 0
0 0 0
0 0 0
0 0 0
0 0 0
0 0 0
0 0 0
0 0 0
0 0 0
0 0 0
0 0 0
0 0 0
0 0 0
0 0 0
0 0 0
0 0 0
0 0 0
0 0 0
0 0 0
0 0 0
0 0 0
0 0 0
97 97 97
107 107 107
109 109 109
108 108 108
105 105 105
0 0 0
0 0 0
0 0 0
0 0 0
0 0 0
0 0 0
0 0 0
0 0 0
0 0 0
0 0 0
0 0 0
0 0 0
0 0 0
0 0 0
0 0 0
0 0 0
0 0 0
0 0 0
0 0 0
0 0 0
0 0 0
0 0 0
0 0 0
0 0 0
0 0 0
0 0 0
0 0 0
0 0 0
0 0 0
0 0 0
0 0 0
0 0 0
0 0 0
0 0 0
0 0 0
0 0 0
0 0 0
0 0 0
0 0 0
0 0 0
147 147 147
147 147 147
147 147 147
147 147 147
147 147 147
147 147 147
82 82 82
89 89 89
90 90 90
88 88 88
0 0 0
0 0 0
0 0 0
0 0 0
0 0 0
0 0 0
0 0 0
0 0 0
0 0 0
0 0 0
0 0 0
0 0 0
0 0 0
0 0 0
0 0 0
0 0 0
0 0 0
0 0 0
0 0 0
0 0 0
0 0 0
0 0 0
0 0 0
0 0 0
0 0 0
0 0 0
0 0 0
0 0 0
0 0 0
0 0 0
0 0 0
0 0 0
0 0 0
0 0 0
147 147 147
147 147 147
147 147 147
147 147 147
147 147 147
147 147 147
147 147 147
147 147 147
147 147 147
147 147 147
147 147 147
147 147 147
147 147 147
62 62 62
68 68 68
69 69 69
67 67 67
0 0 0
0 0 0
0 0 0
0 0 0
0 0 0
0 0 0
0 0 0
0 0 0
0 0 0
0 0 0
0 0 0
0 0 0
0 0 0
0 0 0
0 0 0
0 0 0
0 0 0
0 0 0
0 0 0
0 0 0
0 0 0
0 0 0
0 0 0
0 0 0
0 0 0
147 147 147
147 147 147
147 147 147
0 0 0
147 147 147
147 147 147
147 147 147
147 147 147
147 147 147
147 147 147
147 147 147
147 147 147
147 147 147
147 147 147
147 147 147
147 147 147
147 147 147
147 147 147
147 147 147
147 147 147
147 147 147
147 147 147
37 37 37
44 44 44
45 45 45
42 42 42
38 38 38
33 33 33
0 0 0
0 0 0
0 0 0
0 0 0
0 0 0
0 0 0
0 0 0
0 0 0
0 0 0
0 0 0
0 0 0
0 0 0
0 0 0
0 0 0
0 0 0
0 0 0
0 0 0
0 0 0
0 0 0
0 0 0
0 0 0
147 147 147
147 147 147
147 147 147
147 147 147
147 147 147
147 147 147
147 147 147
147 147 147
147 147 147
147 147 147
147 147 147
147 147 147
147 147 147
147 147 147
147 147 147
147 147 147
147 147 147
147 147 147
147 147 147
147 147 147
147 147 147
147 147 147
147 147 147
147 147 147
0 0 0
14 14 14
15 15 15
13 13 13
9 9 9
3 3 3
0 0 0
0 0 0
0 0 0
0 0 0
0 0 0
0 0 0
0 0 0
0 0 0
0 0 0
0 0 0
0 0 0
0 0 0
0 0 0
0 0 0
0 0 0
0 0 0
147 147 147
147 147 147
147 147 147
147 147 147
147 147 147
147 147 147
147 147 147
147 147 147
147 147 147
147 147 147
147 147 147
147 147 147
147 147 147
147 147 147
147 147 147
147 147 147
147 147 147
147 147 147
147 147 147
147 147 147
147 147 147
147 147 147
147 147 147
147 147 147
147 147 147
147 147 147
147 147 147
147 147 147
147 147 147
147 147 147
147 147 147
147 147 147
147 147 147
147 147 147
147 147 147
0 0 0
0 0 0
0 0 0
0 0 0
0 0 0
0 0 0
0 0 0
0 0 0
0 0 0
0 0 0
147 147 147
147 147 147
147 147 147
147 147 147
147 147 147
147 147 147
147 147 147
147 147 147
147 147 147
147 147 147
147 147 147
147 147 147
147 147 147
147 147 147
147 147 147
147 147 147
147 147 147
147 147 147
147 147 147
147 147 147
147 147 147
147 147 147
147 147 147
147 147 147
147 147 147
147 147 147
147 147 147
147 147 147
147 147 147
147 147 147
147 147 147
147 147 147
147 147 147
147 147 147
147 147 147
147 147 147
147 147 147
147 147 147
0 0 0
147 147 147
147 147 147
147 147 147
147 147 147
147 147 147
0 0 0
147 147 147
147 147 147
147 147 147
147 147 147
147 147 147
147 147 147
147 147 147
147 147 147
147 147 147
147 147 147
147 147 147
147 147 147
147 147 147
147 147 147
147 147 147
147 147 147
147 147 147
147 147 147
147 147 147
147 147 147
147 147 147
147 147 147
147 147 147
147 147 147
147 147 147
147 147 147
147 147 147
147 147 147
147 147 147
147 147 147
147 147 147
147 147 147
147 147 147
147 147 147
147 147 147
147 147 147
147 147 147
147 147 147
147 147 147
147 147 147
147 147 147
147 147 147
147 147 147
147 147 147
147 147 147
147 147 147
147 147 147
147 147 147
147 147 147
147 147 147
147 147 147
147 147 147
147 147 147
147 147 147
147 147 147
147 147 147
147 147 147
147 147 147
147 147 147
147 147 147
147 147 147
147 147 147
147 147 147
147 147 147
147 147 147
147 147 147
147 147 147
147 147 147
147 147 147
147 147 147
147 147 147
147 147 147
147 147 147
147 147 147
147 147 147
147 147 147
147 147 147
147 147 147
147 147 147
147 147 147
147 147 147
147 147 147
147 147 147
147 147 147
147 147 147
147 147 147
147 147 147
147 147 147
147 147 147
147 147 147
147 147 147
147 147 147
147 147 147
147 147 147
147 147 147
147 147 147
147 147 147
147 147 147
147 147 147
147 147 147
147 147 147
147 147 147
147 147 147
147 147 147
147 147 147
147 147 147
147 147 147
147 147 147
147 147 147
147 147 147
147 147 147
147 147 147
147 147 147
147 147 147
147 147 147
147 147 147
147 147 147
147 147 147
147 147 147
147 147 147
147 147 147
147 147 147
147 147 147
147 147 147
147 147 147
147 147 147
147 147 147
147 147 147
147 147 147
147 147 147
147 147 147
147 147 147
147 147 147
147 147 147
147 147 147
147 147 147
147 147 147
147 147 147
147 147 147
147 147 147
147 147 147
147 147 147
147 147 147
147 147 147
147 147 147
147 147 147
147 147 147
147 147 147
147 147 147
147 147 147
147 147 147
147 147 147
147 147 147
147 147 147
147 147 147
147 147 147
147 147 147
147 147 147
147 147 147
147 147 147
147 147 147
147 147 147
147 147 147
147 147 147
147 147 147
147 147 147
147 147 147
147 147 147
147 147 147
147 147 147
147 147 147
147 147 147
147 147 147
147 147 147
147 147 147
147 147 147
147 147 147
147 147 147
147 147 147
147 147 147
147 147 147
147 147 147
147 147 147
147 147 147
147 147 147
147 147 147
147 147 147
147 147 147
147 147 147
147 147 147
147 147 147
147 147 147
147 147 147
147 147 147
147 147 147
147 147 147
147 147 147
147 147 147
147 147 147
147 147 147
147 147 147
147 147 147
147 147 147
147 147 147
147 147 147
147 147 147
147 147 147
147 147 147
147 147 147
147 147 147
147 147 147
147 147 147
147 147 147
147 147 147
147 147 147
147 147 147
147 147 147
147 147 147
147 147 147
147 147 147
147 147 147
147 147 147
147 147 147
147 147 147
147 147 147
147 147 147
147 147 147
147 147 147
147 147 147
147 147 147
147 147 147
147 147 147
147 147 147
147 147 147
147 147 147
147 147 147
147 147 147
147 147 147
147 147 147
147 147 147
147 147 147
147 147 147
147 147 147
147 147 147
147 147 147
147 147 147
147 147 147
147 147 147
147 147 147
147 147 147
147 147 147
147 147 147
147 147 147
147 147 147
147 147 147
147 147 147
147 147 147
147 147 147
147 147 147
147 147 147
147 147 147
147 147 147
147 147 147
147 147 147
147 147 147
147 147 147
147 147 147
147 147 147
147 147 147
147 147 147
147 147 147
147 147 147
147 147 147
147 147 147
147 147 147
147 147 147
147 147 147
147 147 147
147 147 147
147 147 147
147 147 147
147 147 147
147 147 147
147 147 147
147 147 147
147 147 147
147 147 147
147 147 147
147 147 147
147 147 147
147 147 147
147 147 147
147 147 147
147 147 147
147 147 147
147 147 147
147 147 147
147 147 147
147 147 147
147 147 147
147 147 147
147 147 147
147 147 147
147 147 147
147 147 147
147 147 147
147 147 147
147 147 147
147 147 147
147 147 147
147 147 147
147 147 147
147 147 147
147 147 147
147 147 147
147 147 147
147 147 147
147 147 147
147 147 147
147 147 147
147 147 147
147 147 147
147 147 147
147 147 147
147 147 147
147 147 147
147 147 147
147 147 147
147 147 147
147 147 147
147 147 147
147 147 147
147 147 147
147 147 147
147 147 147
147 147 147
147 147 147
147 147 147
147 147 147
147 147 147
147 147 147
147 147 147
147 147 147
147 147 147
147 147 147
147 147 147
147 147 147
147 147 147
147 147 147
147 147 147
147 147 147
147 147 147
147 147 147
147 147 147
147 147 147
147 147 147
147 147 147
147 147 147
147 147 147
147 147 147
147 147 147
147 147 147
147 147 147
147 147 147
147 147 147
147 147 147
147 147 147
147 147 147
147 147 147
147 147 147
147 147 147
147 147 147
147 147 147
147 147 147
147 147 147
147 147 147
147 147 147
147 147 147
147 147 147
147 147 147
147 147 147
147 147 147
147 147 147
147 147 147
147 147 147
147 147 147
147 147 147
147 147 147
147 147 147
147 147 147
147 147 147
147 147 147
147 147 147
147 147 147
147 147 147
147 147 147
147 147 147
147 147 147
147 147 147
147 147 147
147 147 147
147 147 147
147 147 147
147 147 147
147 147 147
147 147 147
147 147 147
147 147 147
147 147 147
147 147 147
147 147 147
147 147 147
147 147 147
147 147 147
147 147 147
147 147 147
147 147 147
147 147 147
147 147 147
147 147 147
147 147 147
147 147 147
147 147 147
147 147 147
147 147 147
147 147 147
147 147 147
147 147 147
147 147 147
147 147 147
147 147 147
147 147 147
147 147 147
147 147 147
147 147 147
147 147 147
147 147 147
147 147 147
147 147 147
147 147 147
147 147 147
147 147 147
147 147 147
147 147 147
147 147 147
147 147 147
147 147 147
147 147 147
147 147 147
147 147 147
147 147 147
147 147 147
147 147 147
147 147 147
147 147 147
147 147 147
147 147 147
147 147 147
147 147 147
147 147 147
147 147 147
147 147 147
147 147 147
147 147 147
147 147 147
147 147 147
147 147 147
147 147 147
0 0 0
0 0 0
147 147 147
147 147 147
147 147 147
147 147 147
147 147 147
147 147 147
147 147 147
147 147 147
147 147 147
147 147 147
147 147 147
147 147 147
147 147 147
147 147 147
147 147 147
147 147 147
147 147 147
147 147 147
147 147 147
147 147 147
147 147 147
147 147 147
147 147 147
147 147 147
147 147 147
147 147 147
147 147 147
147 147 147
147 147 147
147 147 147
147 147 147
147 147 147
147 147 147
147 147 147
147 147 147
147 147 147
147 147 147
147 147 147
147 147 147
147 147 147
147 147 147
147 147 147
147 147 147
147 147 147
147 147 147
147 147 147
147 147 147
147 147 147
0 0 0
0 0 0
0 0 0
0 0 0
0 0 0
0 0 0
147 147 147
147 147 147
147 147 147
147 147 147
147 147 147
147 147 147
147 147 147
147 147 147
147 147 147
147 147 147
147 147 147
147 147 147
147 147 147
147 147 147
147 147 147
147 147 147
147 147 147
147 147 147
147 147 147
147 147 147
147 147 147
147 147 147
147 147 147
147 147 147
147 147 147
147 147 147
147 147 147
147 147 147
147 147 147
147 147 147
147 147 147
147 147 147
147 147 147
147 147 147
147 147 147
147 147 147
147 147 147
147 147 147
147 147 147
147 147 147
147 147 147
147 147 147
147 147 147
147 147 147
0 0 0
0 0 0
0 0 0
0 0 0
0 0 0
0 0 0
0 0 0
0 0 0
0 0 0
0 0 0
0 0 0
147 147 147
147 147 147
147 147 147
147 147 147
147 147 147
147 147 147
147 147 147
147 147 147
147 147 147
147 147 147
147 147 147
147 147 147
147 147 147
147 147 147
147 147 147
147 147 147
147 147 147
147 147 147
147 147 147
147 147 147
147 147 147
147 147 147
147 147 147
147 147 147
147 147 147
147 147 147
147 147 147
147 147 147
147 147 147
147 147 147
147 147 147
147 147 147
147 147 147
147 147 147
147 147 147
147 147 147
147 147 147
147 147 147
147 147 147
0 0 0
0 0 0
0 0 0
0 0 0
0 0 0
0 0 0
0 0 0
0 0 0
0 0 0
0 0 0
0 0 0
0 0 0
0 0 0
0 0 0
0 0 0
0 0 0
0 0 0
0 0 0
147 147 147
147 147 147
147 147 147
147 147 147
147 147 147
147 147 147
147 147 147
147 147 147
147 147 147
147 147 147
147 147 147
147 147 147
147 147 147
147 147 147
147 147 147
147 147 147
147 147 147
147 147 147
147 147 147
147 147 147
147 147 147
147 147 147
147 147 147
147 147 147
147 147 147
147 147 147
147 147 147
147 147 147
147 147 147
147 147 147
147 147 147
147 147 147
